<svg id="Layer_1" data-name="Layer 1" xmlns="http://www.w3.org/2000/svg" viewBox="0 0 189.78 180.77"><defs><style>.cls-1{fill:#ff7d00;}.cls-2{fill:#2e373a;}</style></defs><path class="cls-1" d="M94.31,129q0,25.29-14,39-13.09,12.74-34.86,12.74a83.7,83.7,0,0,1-14.9-1.27,134.52,134.52,0,0,1-15.88-4s8.56-13.56,18.13-12.25A93,93,0,0,0,44.7,164.5q13.53,0,22.16-6.27,10.4-7.65,10.39-23.34V91.37q0-15.3-8.65-24.61a27.68,27.68,0,0,0-21-9.31Q33,57.45,25,67.35T17.06,92q0,13.52,9,21.86t22.53,8.33A31.8,31.8,0,0,0,60,119.8a71.77,71.77,0,0,0,10.43-5.3s4.55,16-11,22.16a29.1,29.1,0,0,1-11,1.76q-20.46,0-34.41-13.53T0,91Q0,69.41,13.23,55.29t35-14.12q20.6,0,33.73,14.32a45.4,45.4,0,0,1,12.35,32Z"/><path class="cls-2" d="M189.78,87.45q0,21.57-12.74,35.88-13.53,15.09-35.69,15.09-20.58,0-33.82-14.21T94.3,87.05V0c10.37.62,17.06,7.12,17.06,12.58V83.92c-.09,3.4,0,18.29,8.85,28.62a26.73,26.73,0,0,0,21.24,9.61q13.77,0,22.52-9.12t8.75-23.43q0-14.5-8.46-23.33t-22.43-8.82a35.15,35.15,0,0,0-11.9,2.15,51.52,51.52,0,0,0-11.71,6.08S118.1,45.39,131,42.74a67.8,67.8,0,0,1,13.73-1.57q18.23,0,31.66,13.43T189.78,87.45Z"/></svg>